{"accessors":[{"bufferView":3,"componentType":5126,"count":1339,"max":[1.101105809211731,2.347259521484375,0.3510943055152893],"min":[-1.1033616065979004,-0.0027618054300546646,-0.18072772026062012],"type":"VEC3"},{"bufferView":3,"byteOffset":16068,"componentType":5126,"count":1339,"max":[0.9995659589767456,0.9982643127441406,0.9999700784683228],"min":[-0.9996955394744873,-0.9999865293502808,-0.9999331831932068],"type":"VEC3"},{"bufferView":2,"componentType":5126,"count":1339,"max":[0.9940999746322632,0.9961000084877014],"min":[0.0038999998942017555,0.007799999788403511],"type":"VEC2"},{"bufferView":1,"componentType":5125,"count":5064,"max":[1338],"min":[0],"type":"SCALAR"},{"bufferView":3,"byteOffset":32136,"componentType":5126,"count":585,"max":[0.19282108545303345,2.7595884799957275,0.3149738907814026],"min":[-0.18581882119178772,2.1072850227355957,-0.1732490360736847],"type":"VEC3"},{"bufferView":3,"byteOffset":39156,"componentType":5126,"count":585,"max":[0.9992563128471375,0.9994645714759827,0.9998818039894104],"min":[-0.9998010993003845,-0.9973466396331787,-0.999937891960144],"type":"VEC3"},{"bufferView":2,"byteOffset":10712,"componentType":5126,"count":585,"max":[0.9940999746322632,1],"min":[0,0.013700000010430813],"type":"VEC2"},{"bufferView":1,"byteOffset":20256,"componentType":5125,"count":2202,"max":[584],"min":[0],"type":"SCALAR"},{"bufferView":3,"byteOffset":46176,"componentType":5126,"count":16,"max":[0.11435827612876892,2.4629065990448,0.2706531584262848],"min":[-0.1087685376405716,2.381448745727539,0.2238149493932724],"type":"VEC3"},{"bufferView":3,"byteOffset":46368,"componentType":5126,"count":16,"max":[0.6989975571632385,0.004099916201084852,0.9550707936286926],"min":[-0.7122836112976074,-0.10879682004451752,0.7013838291168213],"type":"VEC3"},{"bufferView":2,"byteOffset":15392,"componentType":5126,"count":16,"max":[0.6445000171661377,0.6309000253677368],"min":[0.33980000019073486,0.361299991607666],"type":"VEC2"},{"bufferView":1,"byteOffset":29064,"componentType":5125,"count":36,"max":[15],"min":[0],"type":"SCALAR"},{"bufferView":5,"componentType":5126,"count":76,"max":[1,0.8849287033081055,0.5916856527328491,0,0.9964714050292969,1,0.08157477527856827,0,0.9572937488555908,0.991461455821991,1,0,2.032017230987549,1.9401874542236328,0.5797789096832275,1],"min":[-0.972499668598175,-0.9998048543930054,-0.9946491718292236,0,-0.9959894418716431,-0.995636522769928,-0.1725257933139801,0,-0.583346426486969,-0.9918659329414368,-0.9999668002128601,0,-2.3304786682128906,-2.6822335720062256,-0.5901099443435669,1],"type":"MAT4"},{"bufferView":0,"componentType":5123,"count":1339,"max":[75,75,73,75],"min":[1,1,1,1],"type":"VEC4"},{"bufferView":4,"componentType":5126,"count":1339,"max":[1,0.49372580647468567,0.30899545550346375,0.22848445177078247],"min":[0.26953715085983276,0,0,0],"type":"VEC4"},{"bufferView":0,"byteOffset":10712,"componentType":5123,"count":585,"max":[51,26,51,26],"min":[15,15,15,15],"type":"VEC4"},{"bufferView":4,"byteOffset":21424,"componentType":5126,"count":585,"max":[1,0.4337178170681,0.2822740375995636,0.18024738132953644],"min":[0.33523252606391907,0,0,0],"type":"VEC4"},{"bufferView":0,"byteOffset":15392,"componentType":5123,"count":16,"max":[18,20,20,18],"min":[18,17,17,18],"type":"VEC4"},{"bufferView":4,"byteOffset":30784,"componentType":5126,"count":16,"max":[0.9802224040031433,0.10810445994138718,0.027065180242061615,0],"min":[0.8648303747177124,0.017147675156593323,0,0],"type":"VEC4"}],"asset":{"extras":{"author":"Lazy Bryan (https://sketchfab.com/lazybryan)","license":"CC-BY-4.0 (http://creativecommons.org/licenses/by/4.0/)","source":"https://sketchfab.com/3d-models/sasuke-rig-14fb2c29cabc48bebbbc7aee8f536dc5","title":"Sasuke Rig"},"generator":"Sketchfab-9.19.0","version":"2.0"},"bufferViews":[{"buffer":0,"byteLength":15520,"byteOffset":0,"byteStride":8,"name":"shortBufferViews","target":34962},{"buffer":0,"byteLength":29208,"byteOffset":15520,"name":"floatBufferViews","target":34963},{"buffer":0,"byteLength":15520,"byteOffset":44728,"byteStride":8,"name":"floatBufferViews","target":34962},{"buffer":0,"byteLength":46560,"byteOffset":60248,"byteStride":12,"name":"floatBufferViews","target":34962},{"buffer":0,"byteLength":31040,"byteOffset":106808,"byteStride":16,"name":"floatBufferViews","target":34962},{"buffer":0,"byteLength":4864,"byteOffset":137848,"byteStride":64,"name":"floatBufferViews"}],"buffers":[{"byteLength":142712,"uri":"data:application/octet-stream;base64,"}],"images":[{"uri":"data:application/octet-stream;base64,"},{"uri":"data:application/octet-stream;base64,"},{"uri":"data:application/octet-stream;base64,"}],"materials":[{"doubleSided":true,"emissiveFactor":[0,0,0],"name":"sasuke_SasukeBody_bmp2","pbrMetallicRoughness":{"baseColorFactor":[1,1,1,1],"baseColorTexture":{"index":0,"texCoord":0},"metallicFactor":0,"roughnessFactor":1}},{"doubleSided":true,"emissiveFactor":[0,0,0],"name":"sasuke_SasukeHead_bmp2","pbrMetallicRoughness":{"baseColorFactor":[1,1,1,1],"baseColorTexture":{"index":1,"texCoord":0},"metallicFactor":0,"roughnessFactor":1}},{"doubleSided":true,"emissiveFactor":[0,0,0],"name":"lambert4","pbrMetallicRoughness":{"baseColorFactor":[1,1,1,1],"baseColorTexture":{"index":2,"texCoord":0},"metallicFactor":0,"roughnessFactor":0.6}}],"meshes":[{"name":"sasuke_geo__sasuke_SasukeBody_bmp2_0","primitives":[{"attributes":{"JOINTS_0":13,"NORMAL":1,"POSITION":0,"TEXCOORD_0":2,"TEXCOORD_1":2,"WEIGHTS_0":14},"indices":3,"material":0,"mode":4}]},{"name":"sasuke_geo__sasuke_SasukeHead_bmp2_0","primitives":[{"attributes":{"JOINTS_0":15,"NORMAL":5,"POSITION":4,"TEXCOORD_0":6,"TEXCOORD_1":6,"WEIGHTS_0":16},"indices":7,"material":1,"mode":4}]},{"name":"sasuke_geo_lambert4_0","primitives":[{"attributes":{"JOINTS_0":17,"NORMAL":9,"POSITION":8,"TEXCOORD_0":10,"WEIGHTS_0":18},"indices":11,"material":2,"mode":4}]}],"nodes":[{"children":[1],"name":"RootNode (gltf orientation matrix)","rotation":[-0.7071067811865475,0,0,0.7071067811865476]},{"children":[2],"name":"RootNode (model correction matrix)"},{"children":[3],"matrix":[1,0,0,0,0,0,1,0,0,-1,0,0,0,0,0,1],"name":"2a85d9de69334575a587a8f74e94906e.fbx"},{"children":[4],"name":"RootNode"},{"children":[5,6,7,8,84],"name":""},{"children":[9],"name":"_rootJoint"},{"mesh":0,"name":"","skin":0},{"mesh":1,"name":"","skin":0},{"mesh":2,"name":"","skin":0},{"children":[10,21],"name":"COG_J_01","translation":[-0.0032267882488667965,1.6324594020843506,0.09797992557287216]},{"children":[11,16],"name":"pelvis_J_02","translation":[0.0032267882488667965,-0.1430879831314087,0.0003829672932624817]},{"children":[12],"name":"L_hip_J_03","rotation":[0.38059815764427185,-0.424115926027298,-0.5803554654121399,0.5817716717720032],"translation":[0.16637299954891205,-0.21085524559020996,-0.01275736652314663]},{"children":[13],"name":"L_kneel_J_04","rotation":[-0.0017281308537349105,0.0014132304349914193,-0.01924489624798298,0.9998123049736023],"translation":[0.5297932624816895,0.04273044690489769,-0.046516261994838715]},{"children":[14],"name":"L_ankle_J_05","rotation":[-0.01602085307240486,0.03295041248202324,0.3303701877593994,0.9431400299072266],"translation":[0.5717529058456421,-0.007495336700230837,-0.05420614406466484]},{"children":[15],"name":"L_ballfoot_06","rotation":[0.018348347395658493,-0.02887963503599167,0.3841966688632965,0.9226170778274536],"translation":[0.17334403097629547,-2.220446049250313e-16,0]},{"name":"L_toes_J_07","rotation":[0.004618334583938122,0.7062714695930481,0.03436017408967018,0.7070916891098022],"translation":[0.13568387925624847,0.00046806258615106344,0.001474275253713131]},{"children":[17],"name":"R_hip_J_08","rotation":[0.592342734336853,0.5579667687416077,-0.44555988907814026,-0.3732016980648041],"translation":[-0.16637299954891205,-0.21085596084594727,-0.012757392600178719]},{"children":[18],"name":"R_kneel_J_09","rotation":[-0.004391619935631752,0.003610866144299507,-0.0380246527493,0.9992607235908508],"translation":[-0.5292933583259583,-0.04431172460317612,0.05989484861493111]},{"children":[19],"name":"R_ankle_J_010","rotation":[-0.0094675924628973,0.030029306188225746,0.31879138946533203,0.9473018050193787],"translation":[-0.5746982097625732,0.046950872987508774,0.07365021854639053]},{"children":[20],"name":"R_ballfoot_011","rotation":[-0.028576919808983803,-0.01907770149409771,0.9226021766662598,-0.38421952724456787],"translation":[-0.17236179113388062,0.0012391729978844523,0.0006270566955208778]},{"name":"R_toes_J_012","rotation":[-0.7062990665435791,0.00405979435890913,0.7070944905281067,-0.033801961690187454],"translation":[0.13427230715751648,0.00030230043921619654,-0.0008541194256395102]},{"children":[22],"name":"waist_J_013","translation":[0.0032267882488667965,0.07606983184814453,-0.034783750772476196]},{"children":[23],"name":"lowchest_J_014","translation":[3.799180334707462e-17,0.13237929344177246,-0.0390925407409668]},{"children":[24,34,59],"name":"highchest_J_015","translation":[1.2145649105815755e-16,0.10392773151397705,-0.020856838673353195]},{"children":[25],"name":"lowneck_J_016","translation":[9.676947758241455e-17,0.2507740259170532,0.07052880525588989]},{"children":[26],"name":"highneck_J_017","translation":[7.940346251401908e-17,0.06455540657043457,0.017994098365306854]},{"children":[27,28,29],"name":"head_J_018","rotation":[0,0,0.7000870704650879,0.7140575051307678],"translation":[3.4355553770238465e-17,0.08401145040988922,0.022061558440327644]},{"name":"headtop_J_019","rotation":[0,0,-0.7000870704650879,0.7140575051307678],"translation":[0.35136258602142334,-0.00004795725908479653,0.027131512761116028]},{"name":"nose_J_020","translation":[-0.02790754660964012,-0.000552528363186866,0.19762399792671204]},{"children":[30,32],"name":"headband_J_021","rotation":[0.32066747546195984,0.9471918344497681,7.514182418649762e-14,2.5438920176097668e-14],"translation":[0.15780512988567352,-0.0026322389021515846,-0.19088324904441833]},{"children":[31],"name":"R_lowheadband_J_022","rotation":[0.17296656966209412,-0.17720623314380646,-0.024613792076706886,0.9685425758361816],"translation":[0.03632587194442749,0.004747024737298489,0.013401413336396217]},{"name":"R_highheadband_J_023","rotation":[-0.4426579475402832,0.8618204593658447,-0.07888336479663849,-0.23472727835178375],"translation":[0.049347423017024994,-2.220446049250313e-16,1.1102230246251565e-16]},{"children":[33],"name":"L_lowheadband_J_024","rotation":[0.015816740691661835,0.9497195482254028,-0.2674041986465454,-0.1621038317680359],"translation":[-0.035416826605796814,-0.004714965354651213,0.010794701054692268]},{"name":"L_highheadband_J_025","rotation":[0.015816740691661835,0.9497195482254028,-0.2674041986465454,0.1621038317680359],"translation":[0.049238093197345734,-4.440892098500626e-16,2.220446049250313e-16]},{"children":[35],"name":"R_clevear_J_026","rotation":[-0.009014001116156578,0.9611151814460754,-0.0025884138885885477,0.2759888768196106],"translation":[-0.11044999957084656,0.12716920673847198,0.1320382058620453]},{"children":[36],"name":"R_shoulder_J_027","rotation":[-0.059538744390010834,0.23156985640525818,-0.22410723567008972,0.944778561592102],"translation":[0.12636138498783112,-4.440892098500626e-16,-5.551115123125783e-17]},{"children":[37],"name":"R_elbow_J_028","rotation":[-0.039984412491321564,0.12129318714141846,0.16401001811027527,0.9781563878059387],"translation":[0.3472163677215576,4.440892098500626e-16,0]},{"children":[38,47,56],"name":"R_wrist_J_029","rotation":[-0.07577212154865265,0.9930776357650757,0.006828241981565952,0.08949168026447296],"translation":[0.3438890874385834,-4.793265162561511e-8,5.320495155558547e-9]},{"children":[39,43],"name":"R_palm2_J_030","rotation":[-0.04007352143526077,0.9588057398796082,-0.011743481270968914,0.28097647428512573],"translation":[-0.08268497884273529,-0.006739947944879532,-0.020198099315166473]},{"children":[40],"name":"R_knucker_pinky_J_031","rotation":[-0.07589443027973175,0.25141704082489014,-0.20079031586647034,0.9437757730484009],"translation":[0.05308903381228447,-2.220446049250313e-16,-1.1102230246251565e-16]},{"children":[41],"name":"R_pinky1_J_032","rotation":[-0.009290861897170544,0.012097705155611038,-0.15151408314704895,0.9883373975753784],"translation":[0.03326577693223953,0,1.249000902703301e-16]},{"children":[42],"name":"R_pinky2_J_033","rotation":[-0.05249357596039772,0.0372338704764843,-0.14599297940731049,0.9871900081634521],"translation":[0.03364548832178116,2.220446049250313e-16,2.7755575615628914e-17]},{"name":"R_pinky3_J_034","rotation":[-0.005893751047551632,-0.010577470064163208,0.99919593334198,-0.03822093829512596],"translation":[0.035512614995241165,0,0]},{"children":[44],"name":"R_knucker_ring_J_035","rotation":[-0.06444087624549866,0.30780553817749023,-0.11630827188491821,0.9421122670173645],"translation":[0.038006532937288284,-0.0016242197016254067,-0.02596910484135151]},{"children":[45],"name":"R_ring1_J_036","rotation":[0.011630469001829624,-0.018908057361841202,-0.220365509390831,0.9751648306846619],"translation":[0.036437418311834335,4.440892098500626e-16,-4.163336342344337e-17]},{"children":[46],"name":"R_ring2_J_037","rotation":[-0.022541513666510582,0.01695583574473858,-0.15154044330120087,0.9880486130714417],"translation":[0.04535011947154999,0,-2.7755575615628914e-17]},{"name":"R_ring3_J_038","rotation":[-0.01661311835050583,-0.02525051310658455,0.995568573474884,-0.08904863893985748],"translation":[0.04753430187702179,-2.220446049250313e-16,-1.3877787807814457e-17]},{"children":[48,52],"name":"R_palm1_J_039","rotation":[-0.04952118545770645,0.9910082221031189,-0.006203560158610344,0.12414443492889404],"translation":[-0.09086797386407852,-0.007979948073625565,0.024911001324653625]},{"children":[49],"name":"R_knucker_middle_J_040","rotation":[-0.04552781209349632,0.19979535043239594,-0.12124105542898178,0.971241295337677],"translation":[0.04012354835867882,0,5.551115123125783e-17]},{"children":[50],"name":"R_middle1_J_041","rotation":[0.011074245907366276,-0.020345555618405342,-0.14962278306484222,0.9884717464447021],"translation":[0.03874112293124199,4.440892098500626e-16,-9.71445146547012e-17]},{"children":[51],"name":"R_middle2_J_042","rotation":[0.0018480302533134818,-0.0017952366033568978,-0.15062201023101807,0.9885880947113037],"translation":[0.04912744462490082,0,-8.326672684688674e-17]},{"name":"R_middle3_J_043","rotation":[-0.03397153317928314,-0.04450029879808426,0.9979104399681091,-0.03225535899400711],"translation":[0.053780704736709595,6.661338147750939e-16,2.7755575615628914e-17]},{"children":[53],"name":"R_knucker_index_J_044","rotation":[-0.043800462037324905,0.2284219115972519,-0.08702131360769272,0.9686756134033203],"translation":[0.03318401798605919,-0.001097282744012773,-0.030861401930451393]},{"children":[54],"name":"R_index1_J_045","rotation":[0.0058502815663814545,-0.01303139142692089,-0.14242184162139893,0.9897029995918274],"translation":[0.04799588769674301,8.881784197001252e-16,2.7755575615628914e-17]},{"children":[55],"name":"R_index2_J_046","rotation":[-0.005761272273957729,0.007921982556581497,-0.06384322792291641,0.9979118704795837],"translation":[0.041040483862161636,4.440892098500626e-16,0]},{"name":"R_index3_J_00","rotation":[-0.07841901481151581,-0.09005458652973175,0.979896068572998,0.15982592105865479],"translation":[0.034873392432928085,-4.440892098500626e-16,0]},{"children":[57],"name":"R_thumb1_J_047","rotation":[-0.27785226702690125,0.883152425289154,0.11342481523752213,-0.3605203628540039],"translation":[-0.06418197602033615,-0.07154994457960129,0.06398399919271469]},{"children":[58],"name":"R_thumb2_J_048","rotation":[0.08234591037034988,-0.10968521982431412,-0.03402841091156006,0.9899648427963257],"translation":[0.0365903340280056,-2.220446049250313e-16,-1.1102230246251565e-16]},{"name":"R_thumb3_J_049","rotation":[0.01841348223388195,0.015559262596070766,0.9994394183158875,0.023231973871588707],"translation":[0.05563339963555336,2.220446049250313e-16,0]},{"children":[60],"name":"L_clevear_J_050","rotation":[-0.002587047638371587,0.2759879231452942,-0.009009275585412979,0.9611154198646545],"translation":[0.1104501411318779,0.12717080116271973,0.1320379674434662]},{"children":[61],"name":"L_shoulder_J_051","rotation":[0.06446903944015503,-0.2502653896808624,-0.22340531647205353,0.9398409724235535],"translation":[0.12636129558086395,4.440892098500626e-16,-2.7755575615628914e-17]},{"children":[62],"name":"L_elbow_J_052","rotation":[0.0362277589738369,-0.10162506252527237,0.1417359858751297,0.9840075373649597],"translation":[0.3466046452522278,-2.220446049250313e-16,-6.938893903907228e-17]},{"children":[63,72,81],"name":"L_wrist_J_053","rotation":[-0.008932692930102348,0.08930572867393494,0.0991254448890686,0.9910191893577576],"translation":[0.34677815437316895,-1.1814472955506972e-8,1.174135011439148e-9]},{"children":[64,68],"name":"L_palm2_J_054","rotation":[-0.011752136051654816,0.28097623586654663,-0.040103036910295486,0.9588044881820679],"translation":[0.08268493413925171,-0.006735682487487793,-0.020197831094264984]},{"children":[65],"name":"L_knucker_pinky_J_055","rotation":[0.07590318471193314,-0.251413494348526,-0.20076607167720795,0.943781316280365],"translation":[0.053089238703250885,-2.220446049250313e-16,0]},{"children":[66],"name":"L_pinky1_J_056","rotation":[0.009291323833167553,-0.012096992693841457,-0.15155605971813202,0.9883310794830322],"translation":[0.03326433151960373,-4.440892098500626e-16,-1.3877787807814457e-16]},{"children":[67],"name":"L_pinky2_J_057","rotation":[0.05246615409851074,-0.03722038492560387,-0.1458248794078827,0.9872168302536011],"translation":[0.03364487737417221,6.661338147750939e-16,1.3877787807814457e-17]},{"name":"L_pinky3_J_058","rotation":[-0.010549191385507584,0.005879687145352364,0.03809795901179314,0.9992011189460754],"translation":[0.03551393747329712,0,-9.71445146547012e-17]},{"children":[69],"name":"L_knucker_ring_J_059","rotation":[0.06443662196397781,-0.3078056573867798,-0.11623775959014893,0.9421213269233704],"translation":[0.0380072221159935,-0.0016248889733105898,0.025969399139285088]},{"children":[70],"name":"L_ring1_J_060","rotation":[-0.011628624051809311,0.018907656893134117,-0.2203916758298874,0.9751588702201843],"translation":[0.036436572670936584,-4.440892098500626e-16,-8.326672684688674e-17]},{"children":[71],"name":"L_ring2_J_061","rotation":[0.022547522559762,-0.01695833168923855,-0.15163113176822662,0.9880344271659851],"translation":[0.04534916579723358,8.881784197001252e-16,-1.3877787807814457e-17]},{"name":"L_ring3_J_062","rotation":[-0.025257324799895287,0.016614891588687897,0.08912286907434464,0.9955617189407349],"translation":[0.0475352443754673,-2.220446049250313e-16,4.163336342344337e-17]},{"children":[73,77],"name":"L_palm1_J_063","rotation":[-0.006199723109602928,0.12413912266492844,-0.04949277639389038,0.9910103678703308],"translation":[0.09086781740188599,-0.007974982261657715,0.024911142885684967]},{"children":[74],"name":"L_knucker_middle_J_064","rotation":[0.04553533345460892,-0.19978618621826172,-0.12134143710136414,0.9712303876876831],"translation":[0.04012329876422882,-4.440892098500626e-16,0]},{"children":[75],"name":"L_middle1_J_065","rotation":[-0.011076712980866432,0.020350156351923943,-0.14947417378425598,0.9884941577911377],"translation":[0.03874291107058525,0,-5.551115123125783e-17]},{"children":[76],"name":"L_middle2_J_066","rotation":[-0.0018405838636681437,0.0017881756648421288,-0.1507243663072586,0.9885725975036621],"translation":[0.049125462770462036,0,1.3877787807814457e-17]},{"name":"L_middle3_J_067","rotation":[-0.044503726065158844,0.033972203731536865,0.032282933592796326,0.9979094862937927],"translation":[0.05378689244389534,-2.220446049250313e-16,-2.7755575615628914e-17]},{"children":[78],"name":"L_knucker_index_J_068","rotation":[0.043789416551589966,-0.22842809557914734,-0.08702678978443146,0.9686740636825562],"translation":[0.03318483754992485,-0.0011047448497265577,0.030861368402838707]},{"children":[79],"name":"L_index1_J_069","rotation":[-0.0058665466494858265,0.013071125373244286,-0.14236803352832794,0.9897100925445557],"translation":[0.047992151230573654,-8.881784197001252e-16,5.551115123125783e-17]},{"children":[80],"name":"L_index2_J_070","rotation":[0.005802253261208534,-0.007978173904120922,-0.06400679051876068,0.9979007244110107],"translation":[0.04104609787464142,-4.440892098500626e-16,2.7755575615628914e-17]},{"name":"L_index3_J_071","rotation":[-0.09008858352899551,0.07843488454818726,-0.15974023938179016,0.9799056649208069],"translation":[0.03486959636211395,-4.440892098500626e-16,0]},{"children":[82],"name":"L_thumb1_J_072","rotation":[0.08685801923274994,-0.3170245885848999,-0.24955733120441437,0.9108635783195496],"translation":[0.04633796215057373,-0.05806255340576172,0.056980572640895844]},{"children":[83],"name":"L_thumb2_J_073","rotation":[-0.09928304702043533,0.10747236758470535,-0.20716166496276855,0.9673038125038147],"translation":[0.026457715779542923,-2.220446049250313e-16,1.1102230246251565e-16]},{"name":"L_thumb3_J_074","rotation":[0.01055972184985876,-0.008924550376832485,0.08754193037748337,0.9960649013519287],"translation":[0.03153681010007858,0.008386454544961452,0.005022495519369841]},{"children":[85],"matrix":[2.220446049250313e-16,0,1,0,0,1,0,0,-1,0,2.220446049250313e-16,0,-0.28580957651138306,1.7886658906936646,-1000.0999755859375,1],"name":"back"},{"name":""}],"samplers":[{"magFilter":9729,"minFilter":9987,"wrapS":10497,"wrapT":10497}],"scene":0,"scenes":[{"name":"OSG_Scene","nodes":[0]}],"skins":[{"inverseBindMatrices":12,"joints":[5,9,10,11,12,13,14,15,16,17,18,19,20,21,22,23,24,25,26,27,28,29,30,31,32,33,34,35,36,37,38,39,40,41,42,43,44,45,46,47,48,49,50,51,52,53,54,55,56,57,58,59,60,61,62,63,64,65,66,67,68,69,70,71,72,73,74,75,76,77,78,79,80,81,82,83],"skeleton":5}],"textures":[{"sampler":0,"source":0},{"sampler":0,"source":1},{"sampler":0,"source":2}]}